HIERARCHY
ROOT Hips
{
	OFFSET -211.153198 91.653587 -35.738949
	CHANNELS 6 Xposition Yposition Zposition Zrotation Yrotation Xrotation 
	JOINT LeftUpLeg
	{
		OFFSET 0.103455 1.857827 10.548507
		CHANNELS 3 Zrotation Yrotation Xrotation
		JOINT LeftLeg
		{
			OFFSET 43.500000 -0.000031 0.000008
			CHANNELS 3 Zrotation Yrotation Xrotation
			JOINT LeftFoot
			{
				OFFSET 42.372192 0.000011 -0.000014
				CHANNELS 3 Zrotation Yrotation Xrotation
				JOINT LeftToe
				{
					OFFSET 17.299997 -0.000002 0.000013
					CHANNELS 3 Zrotation Yrotation Xrotation
					End Site
					{
						OFFSET 0.000000 0.000000 0.000000
					}
				}
			}
		}
	}
	JOINT RightUpLeg
	{
		OFFSET 0.103457 1.857826 -10.548499
		CHANNELS 3 Zrotation Yrotation Xrotation
		JOINT RightLeg
		{
			OFFSET 43.500046 -0.000019 0.000015
			CHANNELS 3 Zrotation Yrotation Xrotation
			JOINT RightFoot
			{
				OFFSET 42.372261 -0.000004 0.000013
				CHANNELS 3 Zrotation Yrotation Xrotation
				JOINT RightToe
				{
					OFFSET 17.299992 -0.000006 0.000004
					CHANNELS 3 Zrotation Yrotation Xrotation
					End Site
					{
						OFFSET 0.000000 0.000000 0.000000
					}
				}
			}
		}
	}
	JOINT Spine
	{
		OFFSET 6.901968 -2.603730 -0.000002
		CHANNELS 3 Zrotation Yrotation Xrotation
		JOINT Spine1
		{
			OFFSET 12.588100 -0.000001 0.000009
			CHANNELS 3 Zrotation Yrotation Xrotation
			JOINT Spine2
			{
				OFFSET 12.343201 0.000005 -0.000005
				CHANNELS 3 Zrotation Yrotation Xrotation
				JOINT Neck
				{
					OFFSET 25.832893 -0.000008 -0.000006
					CHANNELS 3 Zrotation Yrotation Xrotation
					JOINT Head
					{
						OFFSET 11.766606 0.000005 0.000008
						CHANNELS 3 Zrotation Yrotation Xrotation
						End Site
						{
							OFFSET 0.000000 0.000000 0.000000
						}
					}
				}
				JOINT LeftShoulder
				{
					OFFSET 19.745903 -1.480373 6.000100
					CHANNELS 3 Zrotation Yrotation Xrotation
					JOINT LeftArm
					{
						OFFSET 11.284123 -0.000007 -0.000024
						CHANNELS 3 Zrotation Yrotation Xrotation
						JOINT LeftForeArm
						{
							OFFSET 33.000053 0.000004 0.000036
							CHANNELS 3 Zrotation Yrotation Xrotation
							JOINT LeftHand
							{
								OFFSET 25.200006 0.000021 -0.000003
								CHANNELS 3 Zrotation Yrotation Xrotation
								End Site
								{
									OFFSET 0.000000 0.000000 0.000000
								}
							}
						}
					}
				}
				JOINT RightShoulder
				{
					OFFSET 19.746101 -1.480381 -6.000079
					CHANNELS 3 Zrotation Yrotation Xrotation
					JOINT RightArm
					{
						OFFSET 11.284133 -0.000015 -0.000008
						CHANNELS 3 Zrotation Yrotation Xrotation
						JOINT RightForeArm
						{
							OFFSET 33.000099 0.000016 0.000006
							CHANNELS 3 Zrotation Yrotation Xrotation
							JOINT RightHand
							{
								OFFSET 25.199781 0.000142 0.000425
								CHANNELS 3 Zrotation Yrotation Xrotation
								End Site
								{
									OFFSET 0.000000 0.000000 0.000000
								}
							}
						}
					}
				}
			}
		}
	}
}
MOTION
Frames: 8
Frame Time: 0.033333
-51.844509 58.622299 55.761009 109.125898 -22.833560 62.430839 82.279628 -13.517704 167.699517 -99.957681 1.490064 -0.989710 89.860161 0.266909 -1.773128 21.454555 0.003084 -0.000000 89.641759 37.254205 158.443313 -94.607512 -1.267583 -5.942138 103.682811 5.593798 27.645788 21.454558 -0.003110 -0.000017 19.109838 1.878525 1.516112 28.269695 3.331131 3.445581 27.951636 3.352021 3.425433 -9.250241 -22.473636 -8.645273 -27.615693 23.130912 -25.953880 22.666217 -77.944616 155.852103 -48.493909 -16.835212 -58.351160 -85.359647 -12.791763 2.997975 2.852925 -3.770340 73.181830 94.377682 66.268367 -86.046935 -48.081701 -4.900266 22.604550 -28.232324 13.888775 -1.151451 13.492905 37.825137 11.412788 
-53.468819 59.340149 55.095718 106.658800 -21.281170 64.173746 85.101917 -13.665203 170.109345 -98.384374 1.312096 -0.251491 88.962845 -0.397310 -2.665471 21.454553 0.003095 0.000001 94.182892 37.722199 163.477422 -94.999783 -1.952986 -5.602779 103.765607 5.265538 25.988673 21.454557 -0.003115 -0.000019 18.973311 1.937294 1.446457 27.997678 3.468321 3.319145 27.679528 3.488425 3.298168 -9.313514 -20.099987 -8.971184 -27.218008 22.161835 -25.077007 33.140652 -78.935554 145.516688 -53.224673 -14.843167 -59.768199 -88.523384 -10.269554 2.959668 1.084897 -4.547984 72.026442 97.480200 67.246996 -82.866341 -49.938563 -6.901548 23.975299 -28.825389 15.163575 -1.243982 11.980063 27.795366 9.078019 
-55.069221 60.766441 54.290371 104.270207 -20.154510 64.954880 88.093861 -14.603201 173.182520 -95.731139 0.620131 0.486359 87.703297 -1.099036 -3.647455 21.454551 0.003091 -0.000001 98.822469 36.425713 168.128781 -94.395817 -1.896876 -4.660755 101.969110 4.884374 24.208724 21.454558 -0.003109 -0.000015 18.852120 1.903065 1.605561 27.757453 3.366749 3.621349 27.439452 3.388668 3.600991 -10.492669 -18.779588 -8.982581 -26.384561 21.297758 -24.287654 46.326004 -79.059597 132.510082 -57.432281 -12.297558 -57.866961 -90.401174 -8.615441 2.926407 -0.859614 -7.200395 66.562413 98.803590 68.730404 -81.410029 -51.140461 -7.135990 25.214290 -28.413300 15.782038 -1.275871 12.754420 15.629001 10.785335 
-56.249760 62.485161 53.455139 104.432500 -19.309737 64.873335 91.031750 -14.969405 173.972281 -92.017668 -0.175259 0.823608 86.146068 -1.557828 -4.639718 21.454550 0.003084 -0.000001 100.900069 35.257505 169.682458 -92.927107 -1.754901 -3.831730 101.339592 4.334155 22.921963 21.454562 -0.003112 -0.000018 18.332574 1.431621 1.400801 26.692955 2.502285 3.094173 26.375033 2.521045 3.079034 -11.427972 -17.656201 -8.704831 -25.443421 20.534142 -23.240429 62.781890 -79.899389 116.144963 -61.756002 -8.751806 -52.460012 -91.079350 -8.261362 2.931654 -2.487021 -8.522067 62.837966 98.486355 69.361568 -81.669064 -51.662031 -6.648442 27.810961 -26.618975 14.068244 -1.134699 13.353318 3.989596 12.509569 
-57.516140 64.717262 52.644539 103.437102 -18.034368 65.855058 95.216163 -14.742702 175.355750 -87.232184 -1.126495 1.140709 84.203037 -1.997330 -5.399536 21.454555 0.003105 0.000003 105.682479 34.602705 172.640094 -90.119019 -1.174747 -3.174246 100.900001 3.813474 21.473847 21.454558 -0.003102 -0.000017 18.046497 1.224988 1.291867 26.111241 2.127456 2.826836 25.793333 2.144618 2.813959 -12.255000 -16.304708 -8.458975 -24.687041 19.687621 -22.150918 73.341636 -79.426330 105.694309 -65.373899 -3.233068 -47.782812 -90.354783 -8.869636 2.942285 -2.184090 -6.482963 61.526897 96.064200 70.739764 -83.960087 -52.552691 -6.493291 27.100773 -25.767058 13.339608 -1.073957 14.329766 -0.821354 8.625407 
-58.810230 67.284477 51.761921 102.164802 -16.930557 66.633461 99.694732 -14.935694 176.747469 -81.655745 -2.025787 1.379734 81.941165 -2.407131 -6.054951 21.454555 0.003085 0.000002 110.694130 33.030901 175.909651 -86.651871 -0.806729 -2.074420 99.110710 3.242442 20.190816 21.454558 -0.003110 -0.000016 17.702973 1.013134 1.309276 25.417226 1.714391 2.809056 25.099388 1.731450 2.798678 -12.236090 -14.285532 -8.643385 -24.619769 17.907320 -20.922290 77.313022 -78.384344 101.848660 -67.902496 3.853804 -43.871900 -88.652085 -9.881639 2.937945 0.578168 -4.001100 62.023186 95.087414 72.114374 -84.809872 -53.366682 -6.581156 22.213916 -25.556515 14.047878 -1.115854 14.397303 1.838071 -2.819245 
-60.215691 69.907158 50.879761 100.525802 -15.639429 67.450126 104.609845 -15.390496 178.151401 -75.648901 -2.756170 1.568640 79.480022 -2.838013 -6.735857 21.454553 0.003092 0.000000 115.866346 30.799314 178.560433 -83.048530 -0.542930 -1.304869 96.334962 3.095431 19.473127 21.454555 -0.003103 -0.000017 17.410540 0.864534 1.332897 24.827896 1.423298 2.820183 24.510110 1.440418 2.811564 -12.987022 -12.840062 -8.450340 -24.193713 16.493348 -19.662578 81.510637 -77.557420 97.765764 -69.246036 11.651907 -40.684729 -86.497707 -10.893529 2.913737 3.284407 -1.867693 66.418535 97.197963 72.905624 -82.633459 -53.504475 -6.179973 16.698650 -26.253012 14.671605 -1.167102 12.029910 4.684474 -14.521467 
-61.694611 72.529053 49.986031 98.764126 -14.102121 68.534733 109.959871 -15.775797 179.372242 -69.082323 -3.339057 1.650284 76.623828 -3.261397 -7.424411 21.454555 0.003087 -0.000001 121.075212 28.344189 179.836695 -79.366361 -0.084715 -1.117256 92.852426 3.464835 18.983157 21.454560 -0.003108 -0.000017 17.186841 0.805530 1.306946 24.378509 1.317913 2.754197 24.060723 1.334626 2.746214 -14.209651 -12.450585 -8.001815 -23.663633 15.959509 -18.879975 86.071298 -77.568826 93.252211 -69.969455 19.598688 -37.274757 -83.502000 -12.154871 2.870388 1.914246 -2.150027 72.563226 98.729592 73.649691 -81.037244 -53.439926 -6.360012 13.815173 -28.145046 15.252485 -1.237156 10.210154 6.220566 -21.558655 
